# xmcd
#
# Track frame offsets: 
#        150
#        40077
#        53547
#        64892
#        72649
#        84291
#        97460
#        125218
#        180263
#
# Disc length: 2813 seconds
#
# Revision: 0
# Processed by: cddbd v1.5.2PL0 Copyright (c) Steve Scherf et al.
# Submitted via: ExactAudioCopy v0.99pb4
#
DISCID=7e0afb09
DTITLE=Piirpauke - Historia Of Piirpauke, Vol.1
DYEAR=1977
DGENRE=Ethnic
TTITLE0=Cybele Dipoli (Dipoli, Helsinki 9.11.1974)
TTITLE1=Linnanmäki (Amusement Park) (Osis, Turku, 1.11.1974)
TTITLE2=My Back Pages (Osis, Turku, 1.11.1974)
TTITLE3=Peikkovuori (Troll Mountain) (Osis, Turku, 1.11.1974)
TTITLE4=Moldavialainen Laulu (Moldavian Song) (Tavastia Club, Helsinki
TTITLE4=, 19.7.1976)
TTITLE5=Valse Desiree (Dipoli, Helsinki 9.11.1974)
TTITLE6=Pradizer Adeus (I Say Goodbye) (Bullerbyn Club, Stockholm, 19.
TTITLE6=9.1976)
TTITLE7=Ore Se Rere (Bullerbyn Club, Stockholm, 19.9.1976)
TTITLE8=Konevitsan Kirkonkellot (Churchbells Of Konevitsa) (Bullerbyn 
TTITLE8=Club, Stockholm, 19.9.1976)
EXTD=
EXTT0=
EXTT1=
EXTT2=
EXTT3=
EXTT4=
EXTT5=
EXTT6=
EXTT7=
EXTT8=
PLAYORDER=
